HIERARCHY
ROOT Hips
{
  OFFSET -331.093 83.8371 -317.828
  CHANNELS 6 Xposition Yposition Zposition Zrotation Xrotation Yrotation
  JOINT LeftUpLeg
  {
    OFFSET 8.64259 1.95398 -2.38835
    CHANNELS 3 Zrotation Xrotation Yrotation
    JOINT LeftLeg
    {
      OFFSET 43.7702 0 0
      CHANNELS 3 Zrotation Xrotation Yrotation
      JOINT LeftFoot
      {
        OFFSET 40.6238 0 0
        CHANNELS 3 Zrotation Xrotation Yrotation
        JOINT LeftToeBase
        {
          OFFSET 12.7242 0 0
          CHANNELS 3 Zrotation Xrotation Yrotation
          End Site
          {
            OFFSET 0 0 0
          }
        }
      }
    }
  }
  JOINT RightUpLeg
  {
    OFFSET -8.2249 1.95398 -2.59336
    CHANNELS 3 Zrotation Xrotation Yrotation
    JOINT RightLeg
    {
      OFFSET 43.5653 0 0
      CHANNELS 3 Zrotation Xrotation Yrotation
      JOINT RightFoot
      {
        OFFSET 40.6238 0 0
        CHANNELS 3 Zrotation Xrotation Yrotation
        JOINT RightToeBase
        {
          OFFSET 12.7242 0 0
          CHANNELS 3 Zrotation Xrotation Yrotation
          End Site
          {
            OFFSET 0 0 0
          }
        }
      }
    }
  }
  JOINT Spine
  {
    OFFSET 0.165834 0.87714 6.61349
    CHANNELS 3 Zrotation Xrotation Yrotation
    JOINT Spine1
    {
      OFFSET 7.38963 1.71661e-005 0
      CHANNELS 3 Zrotation Xrotation Yrotation
      JOINT Spine2
      {
        OFFSET 11.9445 1.14441e-005 0
        CHANNELS 3 Zrotation Xrotation Yrotation
        JOINT Spine3
        {
          OFFSET 14.7254 4.19617e-005 0
          CHANNELS 3 Zrotation Xrotation Yrotation
          JOINT Spine4
          {
            OFFSET 10.9679 0 0
            CHANNELS 3 Zrotation Xrotation Yrotation
            JOINT RightShoulder
            {
              OFFSET 2.46616 -1.6653 3.69651
              CHANNELS 3 Zrotation Xrotation Yrotation
              JOINT RightArm
              {
                OFFSET 13.0012 0 0
                CHANNELS 3 Zrotation Xrotation Yrotation
                JOINT RightForeArm
                {
                  OFFSET 28.7848 1.62311e-005 0
                  CHANNELS 3 Zrotation Xrotation Yrotation
                  JOINT RightHand
                  {
                    OFFSET 26.5688 1.62095e-005 0
                    CHANNELS 3 Zrotation Xrotation Yrotation
                    End Site
                    {
                      OFFSET 0 0 0
                    }
                  }
                }
              }
            }
            JOINT LeftShoulder
            {
              OFFSET 2.38034 -1.29275 -3.7523
              CHANNELS 3 Zrotation Xrotation Yrotation
              JOINT LeftArm
              {
                OFFSET 16.3182 6.07031e-005 0
                CHANNELS 3 Zrotation Xrotation Yrotation
                JOINT LeftForeArm
                {
                  OFFSET 27.0901 0 0
                  CHANNELS 3 Zrotation Xrotation Yrotation
                  JOINT LeftHand
                  {
                    OFFSET 24.5451 1.51738e-005 0
                    CHANNELS 3 Zrotation Xrotation Yrotation
                    End Site
                    {
                      OFFSET 0 0 0
                    }
                  }
                }
              }
            }
            JOINT Neck
            {
              OFFSET 5.0226 -0.0266342 0
              CHANNELS 3 Zrotation Xrotation Yrotation
              JOINT Head
              {
                OFFSET 6.69364 2.86102e-005 0
                CHANNELS 3 Zrotation Xrotation Yrotation
                End Site
                {
                  OFFSET 0 0 0
                }
              }
            }
          }
        }
      }
    }
  }
}
MOTION
Frames:	12
Frame Time:	0.0416667
-323.009 88.3527 -308.506 97.9864 -41.145 102.57 -169.607 0.757358 105.843 -38.7433 -63.1239 25.6614 131.936 -44.6207 -97.6616 14.0833 -10.1416 20.8285 176.686 22.1183 103.918 -61.2569 4.82423 -0.527723 14.1425 12.7628 19.5883 102.522 7.94106 10.062 -0.424497 7.30523 -90.8867 12.2518 -1.26382 -1.62827 0.580526 -1.33427 -1.57108 -21.9484 -0.716142 -1.93272 -1.93577 -0.716139 -1.93273 96.0006 -45.106 -91.8471 11.1519 -7.99978 -34.552 25.2033 12.9927 -77.0066 -19.0292 9.92223 -57.51 -91.2094 -44.0314 75.9018 -50.1917 26.1794 38.1601 17.4375 -16.7492 -98.7915 23.3477 1.63149 3.16254 -10.8618 0.392114 -0.642761 8.06135 0.798204 4.33428 
-320.56 88.8071 -305.462 94.8413 -30.6971 98.8517 174.665 20.4193 104.787 -67.476 -44.0245 16.5924 5.4498 -30.9463 -64.0005 18.3373 -3.38193 -95.5765 170.983 17.3137 100.328 -60.6681 13.4132 6.41513 27.1613 9.20105 12.9532 97.8168 8.29575 11.1489 -1.32471 8.76625 -91.1964 9.30725 -3.17888 -2.13081 -2.36114 -3.26956 -1.98879 -24.9033 -2.39177 -2.98757 -4.89061 -2.39176 -2.98757 92.2762 -38.6918 -99.3869 22.2652 5.37469 -10.7027 38.1723 -1.3979 -106.83 -15.404 9.89457 -66.8565 -93.7758 -48.0782 73.065 -35.8126 18.2655 24.4979 14.6515 -8.23642 -90.1063 27.3175 2.42322 5.11341 3.63669 -0.43097 3.40864 7.11555 -0.794447 2.20454 
-314.69 88.9014 -299.561 93.1656 -41.4376 95.5852 -178.398 40.4146 94.0325 -75.0245 14.1425 2.6164 58.4665 -1.87303 0.659807 54.3178 10.9489 -4.32513 176.979 9.58328 102.929 -54.5171 4.39388 -3.89329 31.9179 12.7694 14.2205 97.3689 10.5087 12.9 0.268528 8.24801 -90.6468 10.383 0.238225 -1.31123 -1.28979 0.180328 -1.32044 -23.8119 0.621158 -1.17913 -3.79927 0.621163 -1.17913 93.7683 -36.2729 -97.3222 30.6773 3.40533 6.60835 63.623 -20.7305 -110.752 -12.4531 11.7518 -77.3105 -91.9533 -46.8101 75.4861 -41.6919 19.0983 36.8404 11.4199 -10.3302 -91.7762 27.8526 2.35125 4.64323 2.17503 -2.78728 2.89594 6.01456 -3.18103 0.221582 
-303.707 91.1868 -289.499 84.8057 -51.1381 84.9485 -174.592 44.7666 91.8707 -45.9242 16.0888 -2.50172 53.8693 -4.73866 0.960544 30.8965 7.54206 20.4101 177.794 0.506182 90.0024 -38.938 -1.35206 -7.82172 39.6021 8.85043 8.51678 68.2292 18.5532 43.4329 1.55153 7.55904 -89.8549 11.766 3.15355 -0.0540103 0.0990547 3.14808 -0.19289 -22.4666 3.02387 0.897173 -2.45394 3.02386 0.897161 94.1451 -33.9123 -97.1766 34.3353 -4.94628 5.15996 -81.3487 4.06855 -98.4112 29.3218 -21.1849 -52.5092 -89.4682 -43.8624 78.6264 -48.1211 17.7328 45.4626 13.8133 -11.8768 -94.0934 28.8588 2.43624 4.65438 2.30212 -4.7299 2.35798 5.35168 -5.02703 -0.193756 
-290.559 93.5564 -276.783 82.6034 -47.7157 82.5128 -179.516 39.8931 89.5184 -20.4513 19.9924 -1.75076 48.9336 -6.88294 0.480468 35.9295 12.781 20.1382 173.647 -10.013 89.6597 -34.6502 -15.6765 -5.78728 47.151 6.73917 5.44634 29.5195 -0.671612 -5.27915 1.42448 7.20086 -89.6213 12.4704 3.01041 0.410126 0.80291 3.02556 0.2771 -21.756 2.74789 1.29656 -1.74338 2.74789 1.29655 94.4941 -34.085 -96.4742 37.0845 -16.8893 9.23303 -45.2189 8.4227 -103.663 -11.4712 -0.180327 -7.39391 -88.1103 -40.9498 80.1605 -52.1491 15.957 50.2001 13.1433 -13.2404 -96.6521 28.5543 2.42609 4.70947 1.96958 -5.69831 1.05467 5.01109 -5.71706 0.674594 
-279.201 93.8169 -264.508 83.5199 -48.4036 85.763 -176.151 36.4809 89.566 -21.0584 15.5167 -3.20723 49.948 -6.86528 -0.456397 34.0767 9.89554 17.7007 177.598 -4.80971 91.3699 -52.2392 -4.59127 -6.13008 46.0935 6.3258 5.22109 28.3535 -0.908312 -8.0616 1.44324 7.13089 -89.818 12.6166 2.95373 0.0202037 0.949062 2.95176 -0.109938 -21.6113 2.81097 0.907697 -1.5987 2.81101 0.907701 94.3471 -34.7154 -96.6061 40.2266 -24.9976 14.5046 -24.1493 9.80647 -98.7122 -22.5978 -0.699543 -1.50133 -87.4635 -41.2241 81.2903 -51.133 13.8782 49.382 15.0133 -13.4571 -98.6049 27.464 2.14395 4.00521 2.02899 -4.64986 2.16147 5.11467 -4.98408 -1.34331 
-267.537 93.1253 -252.981 90.5059 -48.3154 88.6644 -173.778 27.8483 84.8591 -33.8236 14.1865 -4.44915 59.0307 0.806333 6.27199 30.7185 1.69663 1.30327 176.516 4.31443 91.2608 -72.0907 5.45401 -5.10968 51.0479 3.04595 2.23211 30.3292 -0.554142 -3.93795 1.05066 7.5222 -89.5286 11.8216 2.31092 0.693024 0.152504 2.33917 0.590592 -22.3936 1.99579 1.35571 -2.38098 1.9958 1.35571 93.4399 -37.1941 -97.7097 41.1862 -25.4983 20.3101 -21.906 0.118453 -90.3045 -29.9114 0.439755 -6.70125 -88.3114 -43.9661 80.4965 -46.5035 13.3091 44.5116 14.4162 -12.5268 -99.3185 29.1187 2.19708 3.73154 -0.0672035 -2.74247 2.93754 6.27307 -3.32047 -2.97282 
-257.246 91.7469 -242.54 88.3073 -47.112 84.2355 -173.823 22.8614 81.0278 -41.7397 18.3077 -4.4968 64.8071 10.6068 16.5839 40.2333 10.7611 5.20793 176.472 23.039 85.7306 -83.8018 8.38404 -3.76642 56.5097 -0.00414426 -0.225117 37.016 -1.00309 -4.45656 0.382684 7.51218 -89.0442 11.8396 1.21068 1.77364 0.168161 1.28754 1.71865 -22.3596 0.621747 2.05538 -2.3469 0.621734 2.05537 92.3529 -41.0093 -98.7197 39.8244 -22.9819 22.4444 -19.0957 2.89072 -80.3301 -27.932 -0.164416 -4.32767 -90.6557 -46.681 77.4446 -37.5698 14.602 33.5517 12.0157 -11.055 -98.7978 29.0856 2.96344 6.454 2.15819 -0.676711 1.9923 5.88252 -1.18712 -3.11452 
-247.204 92.1011 -231.565 88.2127 -42.877 84.6213 -175.899 14.5605 82.1534 -43.9244 15.4272 -1.82665 67.0723 7.98451 9.06995 50.8442 19.0026 3.46214 174.429 35.6672 87.337 -77.5626 9.47945 -1.94952 61.0673 -1.60213 -1.17449 34.6858 -1.50952 -8.21375 -0.49585 7.45737 -89.131 11.9606 -0.576161 1.79563 0.288462 -0.49659 1.81923 -22.24 -1.08913 1.53956 -2.22729 -1.08913 1.53955 92.4701 -42.5484 -98.1685 40.7397 -21.1386 28.5048 -15.9724 1.11724 -76.4214 -27.3859 -0.796086 -1.83195 -91.221 -45.418 76.248 -33.9095 17.4377 25.263 15.2044 -11.9663 -99.192 29.678 2.64261 5.12557 2.0992 1.13916 1.27104 4.74227 0.843511 -1.26951 
-236.086 93.5435 -220.005 89.7429 -44.8347 86.8351 -174.885 5.87738 85.8589 -43.7367 18.0539 -1.23961 57.8003 -2.70268 -1.21774 43.0636 20.7786 19.8813 176.048 37.3983 88.5349 -53.114 9.38394 -1.71455 61.5811 -0.616472 -0.467261 36.6006 -2.0303 -10.0281 -0.592738 7.43918 -89.4283 11.9998 -0.908752 1.23886 0.328483 -0.853373 1.27764 -22.2061 -1.23907 0.908491 -2.19351 -1.23905 0.90849 93.1968 -41.2188 -97.2306 42.1606 -21.0227 35.2521 -13.8258 1.47462 -80.5651 -28.4707 -0.579434 -2.85554 -90.2316 -44.2898 77.5166 -34.0648 18.0341 23.3413 14.3003 -14.0463 -105.237 30.762 2.69338 4.96727 0.790831 2.71694 1.4658 3.46619 2.52297 1.34848 
-225.427 94.1445 -208.343 91.5588 -42.9379 89.0108 -174.365 8.02926 88.0422 -55.7799 17.1526 0.294499 49.63 -7.92364 -2.10598 25.3882 0.637169 16.9845 175.886 32.4555 88.661 -25.8515 2.85514 -1.36143 51.8113 3.64895 2.85506 34.1121 -1.97504 -11.5321 -0.821582 7.55733 -89.7083 11.7646 -1.49692 0.738859 0.0942975 -1.46294 0.804034 -22.4476 -1.64976 0.254708 -2.43497 -1.64975 0.254709 93.0255 -40.8304 -97.6093 40.153 -20.5866 35.9215 -15.2697 1.72029 -82.0712 -26.6298 -0.457329 -3.25694 -90.1591 -44.3654 77.651 -34.1284 18.0673 23.9336 14.7369 -14.2695 -105.679 28.3654 2.60256 5.36798 -0.981889 2.60433 1.20878 4.39546 2.55142 2.53602 
-214.694 93.4763 -196.973 95.1391 -42.1972 91.4886 -173.266 16.515 87.7449 -68.8282 14.3665 0.623069 55.9299 -2.15372 3.87982 32.4947 6.60416 13.0365 175.278 29.5216 89.2268 -28.966 -0.528423 -1.21512 52.5431 3.54736 2.61359 26.9896 -0.575211 -4.55078 -0.567985 7.87148 -89.8399 11.133 -1.05606 0.421491 -0.537624 -1.03649 0.467564 -23.0762 -1.13392 0.0845717 -3.06355 -1.13393 0.0845666 93.3104 -40.6177 -97.1646 36.4637 -19.3726 31.1678 -17.1994 3.65551 -81.7163 -29.3031 0.240344 -6.17199 -91.5899 -45.1893 75.6131 -33.0277 18.6466 25.09 17.2702 -11.5875 -95.5792 30.2548 0.438908 -2.43499 -3.4585 0.858938 0.584387 6.46105 0.985017 2.77571 
